<svg width="45" height="45" viewBox="0 0 45 45" fill="none" xmlns="http://www.w3.org/2000/svg">
<path fill-rule="evenodd" clip-rule="evenodd" d="M19 12.2183C19 12.0283 19 11.9333 18.9358 11.8885C18.8716 11.8437 18.7841 11.876 18.6091 11.9405C14.3134 13.5239 11.25 17.6539 11.25 22.4995C11.25 28.7127 16.2868 33.7495 22.5 33.7495C28.7132 33.7495 33.75 28.7127 33.75 22.4995C33.75 17.6539 30.6866 13.5239 26.3909 11.9405C26.2159 11.876 26.1284 11.8437 26.0642 11.8885C26 11.9333 26 12.0283 26 12.2183V20.8745C26 22.8075 24.433 24.3745 22.5 24.3745C20.567 24.3745 19 22.8075 19 20.8745V12.2183Z" fill="#02BC2B"/>
<path d="M22.5 20.88L22.5 7.5" stroke="#050606" stroke-width="4" stroke-linecap="round"/>
<path d="M33.0182 11.9818C35.0985 14.0621 36.5152 16.7126 37.0892 19.598C37.6631 22.4835 37.3686 25.4744 36.2427 28.1924C35.1169 30.9105 33.2103 33.2336 30.7641 34.8681C28.3179 36.5026 25.442 37.375 22.5 37.375C19.558 37.375 16.6821 36.5026 14.2359 34.8681C11.7897 33.2336 9.88315 30.9105 8.75729 28.1924C7.63144 25.4744 7.33686 22.4835 7.91082 19.598C8.48477 16.7126 9.90148 14.0621 11.9818 11.9818" stroke="#050606" stroke-width="4" stroke-linecap="round"/>
</svg>
